<mxfile host="Electron" modified="2024-02-16T21:07:27.586Z" agent="Mozilla/5.0 (X11; Linux x86_64) AppleWebKit/537.36 (KHTML, like Gecko) draw.io/23.1.5 Chrome/120.0.6099.109 Electron/28.1.0 Safari/537.36" etag="7_61wawsR-FO3XoA_krd" version="23.1.5" type="device">
  <diagram name="Page-1" id="wuFZ6kHBAh307e-wuZnl">
    <mxGraphModel dx="1434" dy="841" grid="1" gridSize="10" guides="1" tooltips="1" connect="1" arrows="1" fold="1" page="1" pageScale="1" pageWidth="827" pageHeight="1169" math="0" shadow="0">
      <root>
        <mxCell id="0" />
        <mxCell id="1" parent="0" />
        <mxCell id="ZK-JJepKykplz_Cc_N93-1" value="END" style="ellipse;whiteSpace=wrap;html=1;aspect=fixed;fillColor=#fff2cc;strokeColor=#d6b656;" vertex="1" parent="1">
          <mxGeometry x="380" y="960" width="80" height="80" as="geometry" />
        </mxCell>
        <mxCell id="ZK-JJepKykplz_Cc_N93-8" style="edgeStyle=orthogonalEdgeStyle;rounded=0;orthogonalLoop=1;jettySize=auto;html=1;entryX=0.5;entryY=0;entryDx=0;entryDy=0;" edge="1" parent="1" source="ZK-JJepKykplz_Cc_N93-2" target="ZK-JJepKykplz_Cc_N93-4">
          <mxGeometry relative="1" as="geometry" />
        </mxCell>
        <mxCell id="ZK-JJepKykplz_Cc_N93-9" style="edgeStyle=orthogonalEdgeStyle;rounded=0;orthogonalLoop=1;jettySize=auto;html=1;entryX=0.5;entryY=0;entryDx=0;entryDy=0;" edge="1" parent="1" source="ZK-JJepKykplz_Cc_N93-2" target="ZK-JJepKykplz_Cc_N93-5">
          <mxGeometry relative="1" as="geometry" />
        </mxCell>
        <mxCell id="ZK-JJepKykplz_Cc_N93-10" style="edgeStyle=orthogonalEdgeStyle;rounded=0;orthogonalLoop=1;jettySize=auto;html=1;" edge="1" parent="1" source="ZK-JJepKykplz_Cc_N93-2" target="ZK-JJepKykplz_Cc_N93-3">
          <mxGeometry relative="1" as="geometry" />
        </mxCell>
        <mxCell id="ZK-JJepKykplz_Cc_N93-2" value="START" style="ellipse;whiteSpace=wrap;html=1;aspect=fixed;fillColor=#fff2cc;strokeColor=#d6b656;" vertex="1" parent="1">
          <mxGeometry x="380" y="10" width="80" height="80" as="geometry" />
        </mxCell>
        <mxCell id="ZK-JJepKykplz_Cc_N93-3" value="Type in search bar" style="rounded=1;whiteSpace=wrap;html=1;fillColor=#d5e8d4;strokeColor=#82b366;" vertex="1" parent="1">
          <mxGeometry x="100" y="120" width="120" height="60" as="geometry" />
        </mxCell>
        <mxCell id="ZK-JJepKykplz_Cc_N93-16" style="edgeStyle=orthogonalEdgeStyle;rounded=0;orthogonalLoop=1;jettySize=auto;html=1;" edge="1" parent="1" source="ZK-JJepKykplz_Cc_N93-4" target="ZK-JJepKykplz_Cc_N93-6">
          <mxGeometry relative="1" as="geometry" />
        </mxCell>
        <mxCell id="ZK-JJepKykplz_Cc_N93-4" value="Choose a tag&amp;nbsp;&lt;br&gt;(ingredient, appliance or ustensil)" style="rounded=1;whiteSpace=wrap;html=1;fillColor=#d5e8d4;strokeColor=#82b366;" vertex="1" parent="1">
          <mxGeometry x="360" y="120" width="120" height="60" as="geometry" />
        </mxCell>
        <mxCell id="ZK-JJepKykplz_Cc_N93-5" value="Delete a tag" style="rounded=1;whiteSpace=wrap;html=1;fillColor=#d5e8d4;strokeColor=#82b366;" vertex="1" parent="1">
          <mxGeometry x="620" y="120" width="120" height="60" as="geometry" />
        </mxCell>
        <mxCell id="ZK-JJepKykplz_Cc_N93-17" style="edgeStyle=orthogonalEdgeStyle;rounded=0;orthogonalLoop=1;jettySize=auto;html=1;entryX=0.5;entryY=0;entryDx=0;entryDy=0;" edge="1" parent="1" source="ZK-JJepKykplz_Cc_N93-6" target="ZK-JJepKykplz_Cc_N93-7">
          <mxGeometry relative="1" as="geometry" />
        </mxCell>
        <mxCell id="ZK-JJepKykplz_Cc_N93-6" value="search" style="shape=parallelogram;perimeter=parallelogramPerimeter;whiteSpace=wrap;html=1;fixedSize=1;fillColor=#dae8fc;strokeColor=#6c8ebf;" vertex="1" parent="1">
          <mxGeometry x="360" y="230" width="120" height="60" as="geometry" />
        </mxCell>
        <mxCell id="ZK-JJepKykplz_Cc_N93-19" value="" style="edgeStyle=orthogonalEdgeStyle;rounded=0;orthogonalLoop=1;jettySize=auto;html=1;" edge="1" parent="1" source="ZK-JJepKykplz_Cc_N93-7" target="ZK-JJepKykplz_Cc_N93-18">
          <mxGeometry relative="1" as="geometry" />
        </mxCell>
        <mxCell id="ZK-JJepKykplz_Cc_N93-21" style="edgeStyle=orthogonalEdgeStyle;rounded=0;orthogonalLoop=1;jettySize=auto;html=1;entryX=0.5;entryY=0;entryDx=0;entryDy=0;" edge="1" parent="1" source="ZK-JJepKykplz_Cc_N93-7" target="ZK-JJepKykplz_Cc_N93-20">
          <mxGeometry relative="1" as="geometry" />
        </mxCell>
        <mxCell id="ZK-JJepKykplz_Cc_N93-7" value="has keys&lt;br&gt;?" style="rhombus;whiteSpace=wrap;html=1;fillColor=#f8cecc;strokeColor=#b85450;" vertex="1" parent="1">
          <mxGeometry x="380" y="330" width="80" height="80" as="geometry" />
        </mxCell>
        <mxCell id="ZK-JJepKykplz_Cc_N93-14" style="edgeStyle=orthogonalEdgeStyle;rounded=0;orthogonalLoop=1;jettySize=auto;html=1;exitX=0.5;exitY=1;exitDx=0;exitDy=0;entryX=0.35;entryY=-0.05;entryDx=0;entryDy=0;entryPerimeter=0;" edge="1" parent="1" source="ZK-JJepKykplz_Cc_N93-3" target="ZK-JJepKykplz_Cc_N93-6">
          <mxGeometry relative="1" as="geometry" />
        </mxCell>
        <mxCell id="ZK-JJepKykplz_Cc_N93-15" style="edgeStyle=orthogonalEdgeStyle;rounded=0;orthogonalLoop=1;jettySize=auto;html=1;entryX=0.825;entryY=-0.017;entryDx=0;entryDy=0;entryPerimeter=0;" edge="1" parent="1">
          <mxGeometry relative="1" as="geometry">
            <mxPoint x="661" y="180" as="sourcePoint" />
            <mxPoint x="440" y="228.98000000000002" as="targetPoint" />
            <Array as="points">
              <mxPoint x="661" y="210" />
              <mxPoint x="440" y="210" />
            </Array>
          </mxGeometry>
        </mxCell>
        <mxCell id="ZK-JJepKykplz_Cc_N93-28" style="edgeStyle=orthogonalEdgeStyle;rounded=0;orthogonalLoop=1;jettySize=auto;html=1;entryX=0;entryY=0.5;entryDx=0;entryDy=0;exitX=0.5;exitY=1;exitDx=0;exitDy=0;" edge="1" parent="1" source="ZK-JJepKykplz_Cc_N93-18" target="ZK-JJepKykplz_Cc_N93-20">
          <mxGeometry relative="1" as="geometry">
            <mxPoint x="190" y="450" as="sourcePoint" />
            <mxPoint x="260" y="560" as="targetPoint" />
            <Array as="points">
              <mxPoint x="260" y="480" />
            </Array>
          </mxGeometry>
        </mxCell>
        <mxCell id="ZK-JJepKykplz_Cc_N93-18" value="search in title, ing&lt;br&gt;description" style="shape=parallelogram;perimeter=parallelogramPerimeter;whiteSpace=wrap;html=1;fixedSize=1;fillColor=#dae8fc;strokeColor=#6c8ebf;" vertex="1" parent="1">
          <mxGeometry x="200" y="340" width="120" height="60" as="geometry" />
        </mxCell>
        <mxCell id="ZK-JJepKykplz_Cc_N93-23" value="" style="edgeStyle=orthogonalEdgeStyle;rounded=0;orthogonalLoop=1;jettySize=auto;html=1;" edge="1" parent="1" source="ZK-JJepKykplz_Cc_N93-20" target="ZK-JJepKykplz_Cc_N93-22">
          <mxGeometry relative="1" as="geometry" />
        </mxCell>
        <mxCell id="ZK-JJepKykplz_Cc_N93-33" style="edgeStyle=orthogonalEdgeStyle;rounded=0;orthogonalLoop=1;jettySize=auto;html=1;exitX=0.5;exitY=1;exitDx=0;exitDy=0;entryX=0.5;entryY=0;entryDx=0;entryDy=0;" edge="1" parent="1" source="ZK-JJepKykplz_Cc_N93-20" target="ZK-JJepKykplz_Cc_N93-29">
          <mxGeometry relative="1" as="geometry" />
        </mxCell>
        <mxCell id="ZK-JJepKykplz_Cc_N93-20" value="has&lt;br&gt;ingredients&lt;br&gt;?" style="rhombus;whiteSpace=wrap;html=1;fillColor=#f8cecc;strokeColor=#b85450;" vertex="1" parent="1">
          <mxGeometry x="380" y="440" width="80" height="80" as="geometry" />
        </mxCell>
        <mxCell id="ZK-JJepKykplz_Cc_N93-32" style="edgeStyle=orthogonalEdgeStyle;rounded=0;orthogonalLoop=1;jettySize=auto;html=1;entryX=1;entryY=0.5;entryDx=0;entryDy=0;" edge="1" parent="1" source="ZK-JJepKykplz_Cc_N93-22" target="ZK-JJepKykplz_Cc_N93-29">
          <mxGeometry relative="1" as="geometry">
            <mxPoint x="580" y="600" as="targetPoint" />
            <Array as="points">
              <mxPoint x="590" y="585" />
            </Array>
          </mxGeometry>
        </mxCell>
        <mxCell id="ZK-JJepKykplz_Cc_N93-22" value="and search in ingredients" style="shape=parallelogram;perimeter=parallelogramPerimeter;whiteSpace=wrap;html=1;fixedSize=1;fillColor=#dae8fc;strokeColor=#6c8ebf;" vertex="1" parent="1">
          <mxGeometry x="520" y="450" width="120" height="60" as="geometry" />
        </mxCell>
        <mxCell id="ZK-JJepKykplz_Cc_N93-24" value="&lt;font style=&quot;font-size: 11px;&quot;&gt;&lt;i&gt;yes&lt;/i&gt;&lt;/font&gt;" style="text;html=1;align=center;verticalAlign=middle;resizable=0;points=[];autosize=1;strokeColor=none;fillColor=none;" vertex="1" parent="1">
          <mxGeometry x="340" y="340" width="40" height="30" as="geometry" />
        </mxCell>
        <mxCell id="ZK-JJepKykplz_Cc_N93-25" value="&lt;i&gt;&lt;font style=&quot;font-size: 11px;&quot;&gt;no&lt;/font&gt;&lt;/i&gt;" style="text;html=1;align=center;verticalAlign=middle;resizable=0;points=[];autosize=1;strokeColor=none;fillColor=none;" vertex="1" parent="1">
          <mxGeometry x="414" y="410" width="40" height="30" as="geometry" />
        </mxCell>
        <mxCell id="ZK-JJepKykplz_Cc_N93-26" value="&lt;font style=&quot;font-size: 11px;&quot;&gt;&lt;i&gt;yes&lt;/i&gt;&lt;/font&gt;" style="text;html=1;align=center;verticalAlign=middle;resizable=0;points=[];autosize=1;strokeColor=none;fillColor=none;" vertex="1" parent="1">
          <mxGeometry x="470" y="448" width="40" height="30" as="geometry" />
        </mxCell>
        <mxCell id="ZK-JJepKykplz_Cc_N93-31" style="edgeStyle=orthogonalEdgeStyle;rounded=0;orthogonalLoop=1;jettySize=auto;html=1;entryX=1;entryY=0.5;entryDx=0;entryDy=0;" edge="1" parent="1" source="ZK-JJepKykplz_Cc_N93-29" target="ZK-JJepKykplz_Cc_N93-30">
          <mxGeometry relative="1" as="geometry" />
        </mxCell>
        <mxCell id="ZK-JJepKykplz_Cc_N93-37" style="edgeStyle=orthogonalEdgeStyle;rounded=0;orthogonalLoop=1;jettySize=auto;html=1;exitX=0.5;exitY=1;exitDx=0;exitDy=0;entryX=0.5;entryY=0;entryDx=0;entryDy=0;" edge="1" parent="1" source="ZK-JJepKykplz_Cc_N93-29" target="ZK-JJepKykplz_Cc_N93-36">
          <mxGeometry relative="1" as="geometry" />
        </mxCell>
        <mxCell id="ZK-JJepKykplz_Cc_N93-29" value="has appliances&lt;br&gt;?" style="rhombus;whiteSpace=wrap;html=1;fillColor=#f8cecc;strokeColor=#b85450;" vertex="1" parent="1">
          <mxGeometry x="380" y="545" width="80" height="80" as="geometry" />
        </mxCell>
        <mxCell id="ZK-JJepKykplz_Cc_N93-42" style="edgeStyle=orthogonalEdgeStyle;rounded=0;orthogonalLoop=1;jettySize=auto;html=1;entryX=0;entryY=0.5;entryDx=0;entryDy=0;" edge="1" parent="1" source="ZK-JJepKykplz_Cc_N93-30" target="ZK-JJepKykplz_Cc_N93-36">
          <mxGeometry relative="1" as="geometry">
            <mxPoint x="260" y="750" as="targetPoint" />
            <Array as="points">
              <mxPoint x="260" y="690" />
            </Array>
          </mxGeometry>
        </mxCell>
        <mxCell id="ZK-JJepKykplz_Cc_N93-30" value="and search in appliances" style="shape=parallelogram;perimeter=parallelogramPerimeter;whiteSpace=wrap;html=1;fixedSize=1;fillColor=#dae8fc;strokeColor=#6c8ebf;" vertex="1" parent="1">
          <mxGeometry x="200" y="555" width="120" height="60" as="geometry" />
        </mxCell>
        <mxCell id="ZK-JJepKykplz_Cc_N93-34" value="no" style="text;html=1;align=center;verticalAlign=middle;resizable=0;points=[];autosize=1;strokeColor=none;fillColor=none;" vertex="1" parent="1">
          <mxGeometry x="414" y="515" width="40" height="30" as="geometry" />
        </mxCell>
        <mxCell id="ZK-JJepKykplz_Cc_N93-35" value="&lt;i&gt;&lt;font style=&quot;font-size: 11px;&quot;&gt;yes&lt;/font&gt;&lt;/i&gt;" style="text;html=1;align=center;verticalAlign=middle;resizable=0;points=[];autosize=1;strokeColor=none;fillColor=none;" vertex="1" parent="1">
          <mxGeometry x="340" y="555" width="40" height="30" as="geometry" />
        </mxCell>
        <mxCell id="ZK-JJepKykplz_Cc_N93-40" style="edgeStyle=orthogonalEdgeStyle;rounded=0;orthogonalLoop=1;jettySize=auto;html=1;exitX=1;exitY=0.5;exitDx=0;exitDy=0;entryX=0;entryY=0.5;entryDx=0;entryDy=0;" edge="1" parent="1" source="ZK-JJepKykplz_Cc_N93-36" target="ZK-JJepKykplz_Cc_N93-39">
          <mxGeometry relative="1" as="geometry" />
        </mxCell>
        <mxCell id="ZK-JJepKykplz_Cc_N93-44" style="edgeStyle=orthogonalEdgeStyle;rounded=0;orthogonalLoop=1;jettySize=auto;html=1;exitX=0.5;exitY=1;exitDx=0;exitDy=0;entryX=0.5;entryY=0;entryDx=0;entryDy=0;" edge="1" parent="1" source="ZK-JJepKykplz_Cc_N93-36" target="ZK-JJepKykplz_Cc_N93-43">
          <mxGeometry relative="1" as="geometry" />
        </mxCell>
        <mxCell id="ZK-JJepKykplz_Cc_N93-36" value="has&lt;br&gt;ustensils&lt;br&gt;?" style="rhombus;whiteSpace=wrap;html=1;fillColor=#f8cecc;strokeColor=#b85450;" vertex="1" parent="1">
          <mxGeometry x="380" y="650" width="80" height="80" as="geometry" />
        </mxCell>
        <mxCell id="ZK-JJepKykplz_Cc_N93-38" value="&lt;i&gt;&lt;font style=&quot;font-size: 11px;&quot;&gt;no&lt;/font&gt;&lt;/i&gt;" style="text;html=1;align=center;verticalAlign=middle;resizable=0;points=[];autosize=1;strokeColor=none;fillColor=none;" vertex="1" parent="1">
          <mxGeometry x="420" y="618" width="40" height="30" as="geometry" />
        </mxCell>
        <mxCell id="ZK-JJepKykplz_Cc_N93-49" style="edgeStyle=orthogonalEdgeStyle;rounded=0;orthogonalLoop=1;jettySize=auto;html=1;entryX=1;entryY=0.5;entryDx=0;entryDy=0;" edge="1" parent="1" source="ZK-JJepKykplz_Cc_N93-39" target="ZK-JJepKykplz_Cc_N93-43">
          <mxGeometry relative="1" as="geometry">
            <mxPoint x="580" y="870" as="targetPoint" />
            <Array as="points">
              <mxPoint x="580" y="800" />
            </Array>
          </mxGeometry>
        </mxCell>
        <mxCell id="ZK-JJepKykplz_Cc_N93-39" value="and search in ustensils" style="shape=parallelogram;perimeter=parallelogramPerimeter;whiteSpace=wrap;html=1;fixedSize=1;fillColor=#dae8fc;strokeColor=#6c8ebf;" vertex="1" parent="1">
          <mxGeometry x="520" y="660" width="120" height="60" as="geometry" />
        </mxCell>
        <mxCell id="ZK-JJepKykplz_Cc_N93-41" value="&lt;i&gt;&lt;font style=&quot;font-size: 11px;&quot;&gt;yes&lt;/font&gt;&lt;/i&gt;" style="text;html=1;align=center;verticalAlign=middle;resizable=0;points=[];autosize=1;strokeColor=none;fillColor=none;" vertex="1" parent="1">
          <mxGeometry x="460" y="658" width="40" height="30" as="geometry" />
        </mxCell>
        <mxCell id="ZK-JJepKykplz_Cc_N93-47" value="" style="edgeStyle=orthogonalEdgeStyle;rounded=0;orthogonalLoop=1;jettySize=auto;html=1;" edge="1" parent="1" source="ZK-JJepKykplz_Cc_N93-43" target="ZK-JJepKykplz_Cc_N93-46">
          <mxGeometry relative="1" as="geometry" />
        </mxCell>
        <mxCell id="ZK-JJepKykplz_Cc_N93-51" style="edgeStyle=orthogonalEdgeStyle;rounded=0;orthogonalLoop=1;jettySize=auto;html=1;entryX=0.5;entryY=0;entryDx=0;entryDy=0;" edge="1" parent="1" source="ZK-JJepKykplz_Cc_N93-43" target="ZK-JJepKykplz_Cc_N93-50">
          <mxGeometry relative="1" as="geometry" />
        </mxCell>
        <mxCell id="ZK-JJepKykplz_Cc_N93-43" value="has&lt;br&gt;recipes&lt;br&gt;?" style="rhombus;whiteSpace=wrap;html=1;fillColor=#f8cecc;strokeColor=#b85450;" vertex="1" parent="1">
          <mxGeometry x="380" y="760" width="80" height="80" as="geometry" />
        </mxCell>
        <mxCell id="ZK-JJepKykplz_Cc_N93-45" value="&lt;i&gt;&lt;font style=&quot;font-size: 11px;&quot;&gt;no&lt;/font&gt;&lt;/i&gt;" style="text;html=1;align=center;verticalAlign=middle;resizable=0;points=[];autosize=1;strokeColor=none;fillColor=none;" vertex="1" parent="1">
          <mxGeometry x="414" y="730" width="40" height="30" as="geometry" />
        </mxCell>
        <mxCell id="ZK-JJepKykplz_Cc_N93-46" value="display &quot;no recipe message&quot;" style="whiteSpace=wrap;html=1;fillColor=#d5e8d4;strokeColor=#82b366;" vertex="1" parent="1">
          <mxGeometry x="200" y="770" width="120" height="60" as="geometry" />
        </mxCell>
        <mxCell id="ZK-JJepKykplz_Cc_N93-48" value="&lt;i&gt;&lt;font style=&quot;font-size: 11px;&quot;&gt;no&lt;/font&gt;&lt;/i&gt;" style="text;html=1;align=center;verticalAlign=middle;resizable=0;points=[];autosize=1;strokeColor=none;fillColor=none;" vertex="1" parent="1">
          <mxGeometry x="340" y="768" width="40" height="30" as="geometry" />
        </mxCell>
        <mxCell id="ZK-JJepKykplz_Cc_N93-53" style="edgeStyle=orthogonalEdgeStyle;rounded=0;orthogonalLoop=1;jettySize=auto;html=1;entryX=0.5;entryY=0;entryDx=0;entryDy=0;" edge="1" parent="1" source="ZK-JJepKykplz_Cc_N93-50" target="ZK-JJepKykplz_Cc_N93-1">
          <mxGeometry relative="1" as="geometry" />
        </mxCell>
        <mxCell id="ZK-JJepKykplz_Cc_N93-50" value="display recipes" style="rounded=1;whiteSpace=wrap;html=1;fillColor=#d5e8d4;strokeColor=#82b366;" vertex="1" parent="1">
          <mxGeometry x="360" y="880" width="120" height="60" as="geometry" />
        </mxCell>
        <mxCell id="ZK-JJepKykplz_Cc_N93-52" value="&lt;i&gt;&lt;font style=&quot;font-size: 11px;&quot;&gt;yes&lt;/font&gt;&lt;/i&gt;" style="text;html=1;align=center;verticalAlign=middle;resizable=0;points=[];autosize=1;strokeColor=none;fillColor=none;" vertex="1" parent="1">
          <mxGeometry x="414" y="840" width="40" height="30" as="geometry" />
        </mxCell>
      </root>
    </mxGraphModel>
  </diagram>
</mxfile>
